<?xml version="1.0" standalone="no"?><!DOCTYPE svg PUBLIC "-//W3C//DTD SVG 1.1//EN" "http://www.w3.org/Graphics/SVG/1.1/DTD/svg11.dtd"><svg t="1620979304962" class="icon" viewBox="0 0 1024 1024" version="1.1" xmlns="http://www.w3.org/2000/svg" p-id="20823" xmlns:xlink="http://www.w3.org/1999/xlink" width="200" height="200"><defs><style type="text/css"></style></defs><path d="M408.806848 857.596562a27.779748 27.779748 0 0 1 27.718626 27.779747v110.813383a27.779748 27.779748 0 0 1-55.498373 0V885.345749a27.810308 27.810308 0 0 1 27.779747-27.779748z m203.473662 0a27.840869 27.840869 0 0 1 27.718626 27.779747v110.813383a27.749187 27.749187 0 0 1-55.498373 0V885.345749a27.810308 27.810308 0 0 1 27.779747-27.779748zM534.747816 127.041156c10.023935 6.815054 245.158564 169.826245 229.878174 437.202495a803.74847 803.74847 0 0 1-17.69469 126.674426 331.981735 331.981735 0 0 1 96.938789 234.951264 27.749187 27.749187 0 0 1-55.498374 0 275.749903 275.749903 0 0 0-58.065479-169.887367c-4.247948 14.302444-8.679261 28.574328-13.660668 42.78509a27.504701 27.504701 0 0 1-21.789835 18.336467l-4.33963 0.336168H547.430539v95.349629a27.718626 27.718626 0 0 1-55.009401 4.431312l-0.336169-4.431312v-95.349629H348.174264a27.779748 27.779748 0 0 1-26.129466-18.642075q-9.168234-26.618438-17.450204-53.634166a279.386636 279.386636 0 0 0-68.975677 183.36467 27.749187 27.749187 0 1 1-55.498373 0 335.098935 335.098935 0 0 1 96.694302-234.890142l10.543469-10.176739 0.977945-0.79458a600.366491 600.366491 0 0 1-14.699734-119.614887c-3.758976-266.184379 220.037604-428.828842 229.419763-435.613334a27.504701 27.504701 0 0 1 31.722087-0.39729z m-17.358522 209.738621a133.000507 133.000507 0 1 0 133.000507 133.000508 133.153311 133.153311 0 0 0-133.000507-133.000508z m0 55.253888a77.654938 77.654938 0 1 1-74.873907 77.654937 77.654938 77.654938 0 0 1 74.873907-77.654937z" fill="#E35858" p-id="20824"></path><path d="M210.650761 0h611.215567v61.121557H210.650761z" fill="#E35858" p-id="20825"></path></svg>